<svg width="30" height="31" viewBox="0 0 30 31" fill="none" xmlns="http://www.w3.org/2000/svg">
<path d="M3.75 8.37814L7.5 3.37814H22.5L26.25 8.37814M3.75 8.37814V25.8781C3.75 26.5412 4.01339 27.1771 4.48223 27.6459C4.95107 28.1148 5.58696 28.3781 6.25 28.3781H23.75C24.413 28.3781 25.0489 28.1148 25.5178 27.6459C25.9866 27.1771 26.25 26.5412 26.25 25.8781V8.37814M3.75 8.37814H26.25M20 13.3781C20 14.7042 19.4732 15.976 18.5355 16.9137C17.5979 17.8514 16.3261 18.3781 15 18.3781C13.6739 18.3781 12.4021 17.8514 11.4645 16.9137C10.5268 15.976 10 14.7042 10 13.3781" stroke="#F3F3F3" stroke-width="2" stroke-linecap="round" stroke-linejoin="round"/>
</svg>
