<svg width="30" height="31" viewBox="0 0 30 31" fill="none" xmlns="http://www.w3.org/2000/svg">
<path d="M26.0501 6.64064C25.4117 6.00189 24.6537 5.49519 23.8193 5.14949C22.985 4.80379 22.0908 4.62585 21.1876 4.62585C20.2845 4.62585 19.3903 4.80379 18.556 5.14949C17.7216 5.49519 16.9636 6.00189 16.3251 6.64064L15.0001 7.96564L13.6751 6.64064C12.3855 5.35102 10.6364 4.62652 8.81265 4.62652C6.98886 4.62652 5.23976 5.35102 3.95015 6.64064C2.66053 7.93025 1.93604 9.67934 1.93604 11.5031C1.93604 13.3269 2.66053 15.076 3.95015 16.3656L15.0001 27.4156L26.0501 16.3656C26.6889 15.7272 27.1956 14.9692 27.5413 14.1348C27.887 13.3005 28.0649 12.4062 28.0649 11.5031C28.0649 10.6 27.887 9.70577 27.5413 8.87144C27.1956 8.03712 26.6889 7.27908 26.0501 6.64064Z" stroke="#F3F3F3" stroke-width="2" stroke-linecap="round" stroke-linejoin="round"/>
</svg>
